<mxfile host="app.diagrams.net" modified="2022-04-19T08:21:42.863Z" agent="5.0 (Windows NT 10.0; Win64; x64) AppleWebKit/537.36 (KHTML, like Gecko) Chrome/100.0.4896.88 Safari/537.36" etag="AE1V8xx22xyTO8U2B9Wc" version="17.4.0" type="github" pages="2">
  <diagram id="P-V6Fkbp9GKcTo8AQyYa" name="Page-1">
    <mxGraphModel dx="1022" dy="1605" grid="1" gridSize="10" guides="1" tooltips="1" connect="1" arrows="1" fold="1" page="1" pageScale="1" pageWidth="827" pageHeight="1169" math="0" shadow="0">
      <root>
        <mxCell id="0" />
        <mxCell id="1" parent="0" />
        <mxCell id="M8qKGmNdcmjCGvmFVX1W-1" value="" style="sketch=0;pointerEvents=1;shadow=0;dashed=0;html=1;strokeColor=none;fillColor=#505050;labelPosition=center;verticalLabelPosition=bottom;verticalAlign=top;outlineConnect=0;align=center;shape=mxgraph.office.concepts.folder;" parent="1" vertex="1">
          <mxGeometry x="150" y="120" width="50" height="45" as="geometry" />
        </mxCell>
        <mxCell id="M8qKGmNdcmjCGvmFVX1W-2" value="" style="shape=image;html=1;verticalAlign=top;verticalLabelPosition=bottom;labelBackgroundColor=#ffffff;imageAspect=0;aspect=fixed;image=https://cdn1.iconfinder.com/data/icons/bootstrap-vol-3/16/filetype-csv-128.png" parent="1" vertex="1">
          <mxGeometry x="620" y="-170" width="50" height="50" as="geometry" />
        </mxCell>
        <mxCell id="M8qKGmNdcmjCGvmFVX1W-3" value="&lt;b&gt;&lt;font style=&quot;font-size: 18px&quot;&gt;Data&lt;/font&gt;&lt;/b&gt;" style="text;html=1;strokeColor=none;fillColor=none;align=center;verticalAlign=middle;whiteSpace=wrap;rounded=0;" parent="1" vertex="1">
          <mxGeometry x="100" y="135" width="60" height="30" as="geometry" />
        </mxCell>
        <mxCell id="M8qKGmNdcmjCGvmFVX1W-4" value="&lt;font face=&quot;Courier New&quot;&gt;&lt;b&gt;M15_16-21.csv&lt;/b&gt;&lt;/font&gt;" style="text;html=1;strokeColor=none;fillColor=none;align=center;verticalAlign=middle;whiteSpace=wrap;rounded=0;fontSize=14;" parent="1" vertex="1">
          <mxGeometry x="660" y="-150" width="120" height="30" as="geometry" />
        </mxCell>
        <mxCell id="M8qKGmNdcmjCGvmFVX1W-5" value="" style="sketch=0;pointerEvents=1;shadow=0;dashed=0;html=1;strokeColor=none;fillColor=#505050;labelPosition=center;verticalLabelPosition=bottom;verticalAlign=top;outlineConnect=0;align=center;shape=mxgraph.office.concepts.folder;" parent="1" vertex="1">
          <mxGeometry x="350" y="292.5" width="50" height="45" as="geometry" />
        </mxCell>
        <mxCell id="M8qKGmNdcmjCGvmFVX1W-6" value="&lt;b&gt;&lt;font style=&quot;font-size: 18px&quot;&gt;GBPUSD&lt;/font&gt;&lt;/b&gt;" style="text;html=1;strokeColor=none;fillColor=none;align=center;verticalAlign=middle;whiteSpace=wrap;rounded=0;" parent="1" vertex="1">
          <mxGeometry x="280" y="307.5" width="60" height="30" as="geometry" />
        </mxCell>
        <mxCell id="M8qKGmNdcmjCGvmFVX1W-7" value="" style="sketch=0;pointerEvents=1;shadow=0;dashed=0;html=1;strokeColor=none;fillColor=#505050;labelPosition=center;verticalLabelPosition=bottom;verticalAlign=top;outlineConnect=0;align=center;shape=mxgraph.office.concepts.folder;" parent="1" vertex="1">
          <mxGeometry x="350" y="-60" width="50" height="45" as="geometry" />
        </mxCell>
        <mxCell id="M8qKGmNdcmjCGvmFVX1W-8" value="&lt;span style=&quot;font-size: 18px&quot;&gt;&lt;b&gt;EURUSD&lt;/b&gt;&lt;/span&gt;" style="text;html=1;strokeColor=none;fillColor=none;align=center;verticalAlign=middle;whiteSpace=wrap;rounded=0;" parent="1" vertex="1">
          <mxGeometry x="280" y="-45" width="60" height="30" as="geometry" />
        </mxCell>
        <mxCell id="M8qKGmNdcmjCGvmFVX1W-9" value="" style="shape=image;html=1;verticalAlign=top;verticalLabelPosition=bottom;labelBackgroundColor=#ffffff;imageAspect=0;aspect=fixed;image=https://cdn1.iconfinder.com/data/icons/bootstrap-vol-3/16/filetype-csv-128.png" parent="1" vertex="1">
          <mxGeometry x="439.5" y="-20" width="50" height="50" as="geometry" />
        </mxCell>
        <mxCell id="M8qKGmNdcmjCGvmFVX1W-10" value="&lt;font face=&quot;Courier New&quot;&gt;&lt;b&gt;forexFactory.csv&lt;/b&gt;&lt;/font&gt;" style="text;html=1;strokeColor=none;fillColor=none;align=center;verticalAlign=middle;whiteSpace=wrap;rounded=0;fontSize=14;" parent="1" vertex="1">
          <mxGeometry x="495" width="120" height="30" as="geometry" />
        </mxCell>
        <mxCell id="M8qKGmNdcmjCGvmFVX1W-11" value="" style="shape=image;html=1;verticalAlign=top;verticalLabelPosition=bottom;labelBackgroundColor=#ffffff;imageAspect=0;aspect=fixed;image=https://cdn1.iconfinder.com/data/icons/bootstrap-vol-3/16/filetype-csv-128.png" parent="1" vertex="1">
          <mxGeometry x="439.5" y="50" width="50" height="50" as="geometry" />
        </mxCell>
        <mxCell id="M8qKGmNdcmjCGvmFVX1W-12" value="&lt;font face=&quot;Courier New&quot;&gt;&lt;b&gt;eventMap.csv&lt;/b&gt;&lt;/font&gt;" style="text;html=1;strokeColor=none;fillColor=none;align=center;verticalAlign=middle;whiteSpace=wrap;rounded=0;fontSize=14;" parent="1" vertex="1">
          <mxGeometry x="480" y="70" width="120" height="30" as="geometry" />
        </mxCell>
        <mxCell id="M8qKGmNdcmjCGvmFVX1W-13" value="" style="shape=image;html=1;verticalAlign=top;verticalLabelPosition=bottom;labelBackgroundColor=#ffffff;imageAspect=0;aspect=fixed;image=https://cdn1.iconfinder.com/data/icons/bootstrap-vol-3/16/filetype-csv-128.png" parent="1" vertex="1">
          <mxGeometry x="620" y="-85" width="50" height="50" as="geometry" />
        </mxCell>
        <mxCell id="M8qKGmNdcmjCGvmFVX1W-14" value="&lt;font face=&quot;Courier New&quot;&gt;&lt;b&gt;H1_16-21.csv&lt;/b&gt;&lt;/font&gt;" style="text;html=1;strokeColor=none;fillColor=none;align=center;verticalAlign=middle;whiteSpace=wrap;rounded=0;fontSize=14;" parent="1" vertex="1">
          <mxGeometry x="660" y="-65" width="120" height="30" as="geometry" />
        </mxCell>
        <mxCell id="M8qKGmNdcmjCGvmFVX1W-19" value="&lt;b&gt;&lt;font style=&quot;font-size: 18px&quot;&gt;Data&lt;/font&gt;&lt;/b&gt;" style="text;html=1;strokeColor=none;fillColor=none;align=center;verticalAlign=middle;whiteSpace=wrap;rounded=0;" parent="1" vertex="1">
          <mxGeometry x="100" y="135" width="60" height="30" as="geometry" />
        </mxCell>
        <mxCell id="M8qKGmNdcmjCGvmFVX1W-20" value="" style="sketch=0;pointerEvents=1;shadow=0;dashed=0;html=1;strokeColor=none;fillColor=#505050;labelPosition=center;verticalLabelPosition=bottom;verticalAlign=top;outlineConnect=0;align=center;shape=mxgraph.office.concepts.folder;" parent="1" vertex="1">
          <mxGeometry x="525" y="-120" width="50" height="45" as="geometry" />
        </mxCell>
        <mxCell id="M8qKGmNdcmjCGvmFVX1W-21" value="&lt;b&gt;&lt;font style=&quot;font-size: 18px&quot;&gt;Raw data&lt;/font&gt;&lt;/b&gt;" style="text;html=1;strokeColor=none;fillColor=none;align=center;verticalAlign=middle;whiteSpace=wrap;rounded=0;" parent="1" vertex="1">
          <mxGeometry x="435" y="-105" width="100" height="30" as="geometry" />
        </mxCell>
        <mxCell id="M8qKGmNdcmjCGvmFVX1W-22" value="" style="shape=image;html=1;verticalAlign=top;verticalLabelPosition=bottom;labelBackgroundColor=#ffffff;imageAspect=0;aspect=fixed;image=https://cdn1.iconfinder.com/data/icons/bootstrap-vol-3/16/filetype-csv-128.png" parent="1" vertex="1">
          <mxGeometry x="620" y="165" width="50" height="50" as="geometry" />
        </mxCell>
        <mxCell id="M8qKGmNdcmjCGvmFVX1W-23" value="&lt;font face=&quot;Courier New&quot;&gt;&lt;b&gt;M15_16-21.csv&lt;/b&gt;&lt;/font&gt;" style="text;html=1;strokeColor=none;fillColor=none;align=center;verticalAlign=middle;whiteSpace=wrap;rounded=0;fontSize=14;" parent="1" vertex="1">
          <mxGeometry x="660" y="180" width="120" height="30" as="geometry" />
        </mxCell>
        <mxCell id="M8qKGmNdcmjCGvmFVX1W-24" value="" style="shape=image;html=1;verticalAlign=top;verticalLabelPosition=bottom;labelBackgroundColor=#ffffff;imageAspect=0;aspect=fixed;image=https://cdn1.iconfinder.com/data/icons/bootstrap-vol-3/16/filetype-csv-128.png" parent="1" vertex="1">
          <mxGeometry x="439.5" y="313" width="50" height="50" as="geometry" />
        </mxCell>
        <mxCell id="M8qKGmNdcmjCGvmFVX1W-25" value="&lt;font face=&quot;Courier New&quot;&gt;&lt;b&gt;forexFactory.csv&lt;/b&gt;&lt;/font&gt;" style="text;html=1;strokeColor=none;fillColor=none;align=center;verticalAlign=middle;whiteSpace=wrap;rounded=0;fontSize=14;" parent="1" vertex="1">
          <mxGeometry x="495" y="330" width="120" height="30" as="geometry" />
        </mxCell>
        <mxCell id="M8qKGmNdcmjCGvmFVX1W-26" value="" style="shape=image;html=1;verticalAlign=top;verticalLabelPosition=bottom;labelBackgroundColor=#ffffff;imageAspect=0;aspect=fixed;image=https://cdn1.iconfinder.com/data/icons/bootstrap-vol-3/16/filetype-csv-128.png" parent="1" vertex="1">
          <mxGeometry x="438.5" y="388" width="50" height="50" as="geometry" />
        </mxCell>
        <mxCell id="M8qKGmNdcmjCGvmFVX1W-27" value="&lt;font face=&quot;Courier New&quot;&gt;&lt;b&gt;eventMap.csv&lt;/b&gt;&lt;/font&gt;" style="text;html=1;strokeColor=none;fillColor=none;align=center;verticalAlign=middle;whiteSpace=wrap;rounded=0;fontSize=14;" parent="1" vertex="1">
          <mxGeometry x="480" y="400" width="120" height="30" as="geometry" />
        </mxCell>
        <mxCell id="M8qKGmNdcmjCGvmFVX1W-28" value="" style="shape=image;html=1;verticalAlign=top;verticalLabelPosition=bottom;labelBackgroundColor=#ffffff;imageAspect=0;aspect=fixed;image=https://cdn1.iconfinder.com/data/icons/bootstrap-vol-3/16/filetype-csv-128.png" parent="1" vertex="1">
          <mxGeometry x="620" y="245" width="50" height="50" as="geometry" />
        </mxCell>
        <mxCell id="M8qKGmNdcmjCGvmFVX1W-29" value="&lt;font face=&quot;Courier New&quot;&gt;&lt;b&gt;H1_16-21.csv&lt;/b&gt;&lt;/font&gt;" style="text;html=1;strokeColor=none;fillColor=none;align=center;verticalAlign=middle;whiteSpace=wrap;rounded=0;fontSize=14;" parent="1" vertex="1">
          <mxGeometry x="660" y="265" width="120" height="30" as="geometry" />
        </mxCell>
        <mxCell id="M8qKGmNdcmjCGvmFVX1W-30" value="" style="sketch=0;pointerEvents=1;shadow=0;dashed=0;html=1;strokeColor=none;fillColor=#505050;labelPosition=center;verticalLabelPosition=bottom;verticalAlign=top;outlineConnect=0;align=center;shape=mxgraph.office.concepts.folder;" parent="1" vertex="1">
          <mxGeometry x="525" y="210" width="50" height="45" as="geometry" />
        </mxCell>
        <mxCell id="M8qKGmNdcmjCGvmFVX1W-31" value="&lt;b&gt;&lt;font style=&quot;font-size: 18px&quot;&gt;Raw data&lt;/font&gt;&lt;/b&gt;" style="text;html=1;strokeColor=none;fillColor=none;align=center;verticalAlign=middle;whiteSpace=wrap;rounded=0;" parent="1" vertex="1">
          <mxGeometry x="435" y="225" width="100" height="30" as="geometry" />
        </mxCell>
        <mxCell id="M8qKGmNdcmjCGvmFVX1W-34" value="" style="line;strokeWidth=2;html=1;fontFamily=Courier New;fontSize=18;rotation=90;" parent="1" vertex="1">
          <mxGeometry x="60.13" y="141.38" width="355.75" height="10" as="geometry" />
        </mxCell>
        <mxCell id="M8qKGmNdcmjCGvmFVX1W-35" value="" style="line;strokeWidth=2;html=1;fontFamily=Courier New;fontSize=18;rotation=90;" parent="1" vertex="1">
          <mxGeometry x="334.38" y="320.63" width="176.25" height="10" as="geometry" />
        </mxCell>
        <mxCell id="M8qKGmNdcmjCGvmFVX1W-36" value="" style="line;strokeWidth=2;html=1;fontFamily=Courier New;fontSize=18;rotation=90;" parent="1" vertex="1">
          <mxGeometry x="339.93" y="-13.42" width="165.15" height="10" as="geometry" />
        </mxCell>
        <mxCell id="M8qKGmNdcmjCGvmFVX1W-37" value="" style="line;strokeWidth=2;html=1;fontFamily=Courier New;fontSize=18;rotation=90;" parent="1" vertex="1">
          <mxGeometry x="559.38" y="-109.38" width="90" height="10" as="geometry" />
        </mxCell>
        <mxCell id="M8qKGmNdcmjCGvmFVX1W-38" value="" style="line;strokeWidth=2;html=1;fontFamily=Courier New;fontSize=18;rotation=90;" parent="1" vertex="1">
          <mxGeometry x="566.88" y="223.13" width="75" height="10" as="geometry" />
        </mxCell>
        <mxCell id="M8qKGmNdcmjCGvmFVX1W-40" value="" style="line;strokeWidth=2;html=1;fontFamily=Courier New;fontSize=18;rotation=-180;" parent="1" vertex="1">
          <mxGeometry x="237" y="-37" width="28.25" height="10" as="geometry" />
        </mxCell>
        <mxCell id="M8qKGmNdcmjCGvmFVX1W-42" value="" style="line;strokeWidth=2;html=1;fontFamily=Courier New;fontSize=18;rotation=-180;" parent="1" vertex="1">
          <mxGeometry x="237" y="318.63" width="28.25" height="10" as="geometry" />
        </mxCell>
        <mxCell id="M8qKGmNdcmjCGvmFVX1W-43" value="" style="line;strokeWidth=2;html=1;fontFamily=Courier New;fontSize=18;rotation=-180;" parent="1" vertex="1">
          <mxGeometry x="210" y="143.38" width="28.25" height="10" as="geometry" />
        </mxCell>
        <mxCell id="M8qKGmNdcmjCGvmFVX1W-44" value="" style="line;strokeWidth=2;html=1;fontFamily=Courier New;fontSize=18;rotation=-180;" parent="1" vertex="1">
          <mxGeometry x="405" y="-35" width="17.25" height="10" as="geometry" />
        </mxCell>
        <mxCell id="M8qKGmNdcmjCGvmFVX1W-46" value="" style="line;strokeWidth=2;html=1;fontFamily=Courier New;fontSize=18;rotation=-180;" parent="1" vertex="1">
          <mxGeometry x="405" y="315" width="17.25" height="10" as="geometry" />
        </mxCell>
        <mxCell id="M8qKGmNdcmjCGvmFVX1W-47" value="" style="line;strokeWidth=2;html=1;fontFamily=Courier New;fontSize=18;rotation=-180;" parent="1" vertex="1">
          <mxGeometry x="422.25" y="-95" width="17.25" height="10" as="geometry" />
        </mxCell>
        <mxCell id="M8qKGmNdcmjCGvmFVX1W-48" value="" style="line;strokeWidth=2;html=1;fontFamily=Courier New;fontSize=18;rotation=-180;" parent="1" vertex="1">
          <mxGeometry x="422.25" width="17.25" height="10" as="geometry" />
        </mxCell>
        <mxCell id="M8qKGmNdcmjCGvmFVX1W-49" value="" style="line;strokeWidth=2;html=1;fontFamily=Courier New;fontSize=18;rotation=-180;" parent="1" vertex="1">
          <mxGeometry x="421.75" y="69" width="17.25" height="10" as="geometry" />
        </mxCell>
        <mxCell id="M8qKGmNdcmjCGvmFVX1W-50" value="" style="line;strokeWidth=2;html=1;fontFamily=Courier New;fontSize=18;rotation=-180;" parent="1" vertex="1">
          <mxGeometry x="421.75" y="233" width="17.25" height="10" as="geometry" />
        </mxCell>
        <mxCell id="M8qKGmNdcmjCGvmFVX1W-51" value="" style="line;strokeWidth=2;html=1;fontFamily=Courier New;fontSize=18;rotation=-180;" parent="1" vertex="1">
          <mxGeometry x="421.25" y="333" width="17.25" height="10" as="geometry" />
        </mxCell>
        <mxCell id="M8qKGmNdcmjCGvmFVX1W-52" value="" style="line;strokeWidth=2;html=1;fontFamily=Courier New;fontSize=18;rotation=-180;" parent="1" vertex="1">
          <mxGeometry x="422" y="408" width="17.25" height="10" as="geometry" />
        </mxCell>
        <mxCell id="M8qKGmNdcmjCGvmFVX1W-53" value="" style="line;strokeWidth=2;html=1;fontFamily=Courier New;fontSize=18;rotation=-180;" parent="1" vertex="1">
          <mxGeometry x="586.75" y="-101.5" width="17.25" height="10" as="geometry" />
        </mxCell>
        <mxCell id="M8qKGmNdcmjCGvmFVX1W-54" value="" style="line;strokeWidth=2;html=1;fontFamily=Courier New;fontSize=18;rotation=-180;" parent="1" vertex="1">
          <mxGeometry x="604" y="-154" width="17.25" height="10" as="geometry" />
        </mxCell>
        <mxCell id="M8qKGmNdcmjCGvmFVX1W-55" value="" style="line;strokeWidth=2;html=1;fontFamily=Courier New;fontSize=18;rotation=-180;" parent="1" vertex="1">
          <mxGeometry x="604" y="-65" width="17.25" height="10" as="geometry" />
        </mxCell>
        <mxCell id="M8qKGmNdcmjCGvmFVX1W-56" value="" style="line;strokeWidth=2;html=1;fontFamily=Courier New;fontSize=18;rotation=-180;" parent="1" vertex="1">
          <mxGeometry x="604" y="185" width="17.25" height="10" as="geometry" />
        </mxCell>
        <mxCell id="M8qKGmNdcmjCGvmFVX1W-57" value="" style="line;strokeWidth=2;html=1;fontFamily=Courier New;fontSize=18;rotation=-180;" parent="1" vertex="1">
          <mxGeometry x="586.75" y="227" width="17.25" height="10" as="geometry" />
        </mxCell>
        <mxCell id="M8qKGmNdcmjCGvmFVX1W-58" value="" style="line;strokeWidth=2;html=1;fontFamily=Courier New;fontSize=18;rotation=-180;" parent="1" vertex="1">
          <mxGeometry x="604" y="260" width="17.25" height="10" as="geometry" />
        </mxCell>
      </root>
    </mxGraphModel>
  </diagram>
  <diagram id="5XrfyeUdawBI6jR6qaed" name="Page-2">
    <mxGraphModel dx="852" dy="363" grid="1" gridSize="10" guides="1" tooltips="1" connect="1" arrows="1" fold="1" page="1" pageScale="1" pageWidth="827" pageHeight="1169" math="0" shadow="0">
      <root>
        <mxCell id="0" />
        <mxCell id="1" parent="0" />
        <mxCell id="YZS7afPwxokB4g6oB_uR-1" value="&lt;font color=&quot;#00cc00&quot; style=&quot;font-size: 18px&quot;&gt;&lt;b&gt;EUR&lt;/b&gt;&lt;/font&gt;" style="text;html=1;strokeColor=none;fillColor=none;align=center;verticalAlign=middle;whiteSpace=wrap;rounded=0;" vertex="1" parent="1">
          <mxGeometry x="227" y="100" width="140" height="30" as="geometry" />
        </mxCell>
        <mxCell id="YZS7afPwxokB4g6oB_uR-3" value="&lt;font color=&quot;#cc0000&quot;&gt;&lt;span style=&quot;font-size: 18px&quot;&gt;&lt;b&gt;USD&lt;/b&gt;&lt;/span&gt;&lt;/font&gt;" style="text;html=1;strokeColor=none;fillColor=none;align=center;verticalAlign=middle;whiteSpace=wrap;rounded=0;" vertex="1" parent="1">
          <mxGeometry x="287" y="100" width="140" height="30" as="geometry" />
        </mxCell>
        <mxCell id="YZS7afPwxokB4g6oB_uR-4" value="&lt;span style=&quot;font-size: 18px&quot;&gt;&lt;b&gt;&lt;font color=&quot;#b3b3b3&quot;&gt;/&lt;/font&gt;&lt;/b&gt;&lt;/span&gt;" style="text;html=1;strokeColor=none;fillColor=none;align=center;verticalAlign=middle;whiteSpace=wrap;rounded=0;" vertex="1" parent="1">
          <mxGeometry x="257" y="100" width="140" height="30" as="geometry" />
        </mxCell>
        <mxCell id="YZS7afPwxokB4g6oB_uR-6" value="&lt;b&gt;1.139&lt;font color=&quot;#003366&quot;&gt;8&lt;/font&gt;7&lt;/b&gt;" style="rounded=1;whiteSpace=wrap;html=1;labelBackgroundColor=none;fontSize=18;fontColor=#FFFFFF;strokeColor=#00CC00;fillColor=#00CC00;arcSize=50;" vertex="1" parent="1">
          <mxGeometry x="180" y="140" width="120" height="40" as="geometry" />
        </mxCell>
        <mxCell id="YZS7afPwxokB4g6oB_uR-7" value="&lt;b&gt;1.139&lt;font color=&quot;#003366&quot;&gt;7&lt;/font&gt;7&lt;/b&gt;" style="rounded=1;whiteSpace=wrap;html=1;labelBackgroundColor=none;fontSize=18;fontColor=#FFFFFF;strokeColor=none;fillColor=#CC0000;arcSize=50;" vertex="1" parent="1">
          <mxGeometry x="350" y="140" width="120" height="40" as="geometry" />
        </mxCell>
        <mxCell id="YZS7afPwxokB4g6oB_uR-9" value="" style="endArrow=none;dashed=1;html=1;rounded=0;fontSize=28;fontColor=#003366;strokeColor=#000000;" edge="1" parent="1">
          <mxGeometry width="50" height="50" relative="1" as="geometry">
            <mxPoint x="256" y="170" as="sourcePoint" />
            <mxPoint x="426" y="170" as="targetPoint" />
            <Array as="points">
              <mxPoint x="256" y="200" />
              <mxPoint x="426" y="200" />
            </Array>
          </mxGeometry>
        </mxCell>
        <mxCell id="YZS7afPwxokB4g6oB_uR-10" value="&lt;i&gt;1 pip&lt;/i&gt;" style="text;html=1;strokeColor=none;fillColor=none;align=center;verticalAlign=middle;whiteSpace=wrap;rounded=0;labelBackgroundColor=none;fontSize=18;fontColor=#003366;" vertex="1" parent="1">
          <mxGeometry x="297" y="175" width="60" height="30" as="geometry" />
        </mxCell>
      </root>
    </mxGraphModel>
  </diagram>
</mxfile>
